<svg width="386" height="359" viewBox="0 0 386 359" fill="none" xmlns="http://www.w3.org/2000/svg">
<path d="M4.06022 337.799L8.93248 336.581V284.61L4.06022 283.392V282.174H27.2035V283.392L22.3312 284.61V336.987H39.7901C39.7901 333.577 40.6563 330.41 42.3887 327.486C43.1466 326.241 44.0398 325.213 45.0684 324.401H47.5045V339.017H4.06022V337.799ZM74.7365 340.235C67.8071 340.235 62.4206 338.341 58.5769 334.551C54.7332 330.707 52.8114 325.429 52.8114 318.716C52.8114 314.331 53.6505 310.515 55.3287 307.266C57.0069 304.018 59.3348 301.528 62.3123 299.796C65.3439 298.063 68.8086 297.197 72.7064 297.197C76.6042 297.197 80.0148 297.928 82.9382 299.39C85.9157 300.851 88.1894 302.827 89.7594 305.318C91.3834 307.754 92.1955 310.46 92.1955 313.438C92.1955 314.791 92.0601 315.955 91.7895 316.93L91.3834 318.31C89.0556 318.797 86.5382 319.203 83.8314 319.528C78.1471 320.34 72.4087 320.746 66.6161 320.746C66.6161 327.026 67.4823 331.519 69.2147 334.226C70.947 336.879 73.329 338.205 76.3606 338.205C78.4719 338.205 80.4209 337.718 82.2073 336.744C84.048 335.715 85.4826 334.389 86.5112 332.765C87.5939 331.086 88.1353 329.381 88.1353 327.649H90.1654C90.1654 329.814 89.5157 331.871 88.2165 333.82C86.9172 335.769 85.1036 337.339 82.7758 338.53C80.4479 339.667 77.7682 340.235 74.7365 340.235ZM66.6161 318.716C70.0808 318.716 72.8959 318.581 75.0614 318.31C75.9817 318.256 76.9561 318.121 77.9847 317.904C78.0389 317.634 78.1742 317.038 78.3907 316.118C78.6614 314.764 78.7968 313.33 78.7968 311.814C78.7968 307.321 78.2013 304.045 77.0103 301.988C75.8193 299.877 74.3847 298.821 72.7064 298.821C68.6462 298.821 66.6161 305.453 66.6161 318.716ZM113.293 340.235C108.475 340.235 104.766 339.207 102.168 337.15C99.5692 335.092 98.2699 332.467 98.2699 329.273C98.2699 327.161 98.7301 325.077 99.6504 323.02C100.029 322.046 100.517 321.152 101.112 320.34C103.332 319.799 105.741 319.312 108.339 318.879C114.186 317.904 119.356 317.309 123.849 317.092V314.656C123.849 308.647 123.118 304.505 121.657 302.232C120.195 299.958 117.948 298.821 114.917 298.821C113.78 298.821 112.806 298.957 111.993 299.227L110.857 299.633V311.814L109.801 312.057C108.935 312.166 108.204 312.22 107.608 312.22C105.768 312.22 104.279 311.679 103.142 310.596C102.059 309.459 101.518 307.97 101.518 306.13C101.518 303.639 102.763 301.528 105.254 299.796C107.798 298.063 111.56 297.197 116.541 297.197C120.764 297.197 124.391 297.955 127.422 299.471C130.508 300.932 132.836 302.99 134.406 305.642C136.03 308.241 136.842 311.245 136.842 314.656V336.581L141.714 337.799V339.017H134.406C131.158 339.017 128.64 338.016 126.854 336.013C126.096 335.201 125.5 334.172 125.067 332.927C124.309 334.28 123.416 335.498 122.388 336.581C119.952 339.017 116.92 340.235 113.293 340.235ZM116.541 337.393C118.544 337.393 120.358 336.311 121.982 334.145C122.577 333.333 123.2 332.25 123.849 330.897V319.122C121.359 319.122 118.977 319.258 116.703 319.528C115.025 319.745 113.888 319.88 113.293 319.934C113.022 320.53 112.751 321.342 112.481 322.37C111.939 324.428 111.669 326.458 111.669 328.461C111.669 331.492 112.129 333.739 113.049 335.201C113.969 336.662 115.133 337.393 116.541 337.393ZM146.625 337.799L151.497 336.581V300.851L146.625 299.633V298.415H153.933C157.127 298.415 159.644 299.444 161.485 301.501C162.189 302.313 162.784 303.314 163.271 304.505C164.084 303.314 165.085 302.232 166.276 301.257C168.983 299.092 172.014 298.009 175.371 298.009C178.24 298.009 180.379 298.686 181.786 300.039C183.248 301.339 183.979 303.233 183.979 305.724C183.979 307.564 183.41 309.053 182.273 310.19C181.191 311.273 179.729 311.814 177.888 311.814C177.13 311.814 176.372 311.76 175.615 311.651L174.64 311.408V300.039C171.879 300.039 169.362 301.122 167.088 303.287C166.005 304.37 165.139 305.453 164.49 306.536V336.581L169.362 337.799V339.017H146.625V337.799ZM187.623 337.799L192.496 336.581V300.851L187.623 299.633V298.415H194.932C198.126 298.415 200.643 299.444 202.484 301.501C203.187 302.313 203.783 303.314 204.27 304.505C205.028 303.098 205.921 301.88 206.95 300.851C209.386 298.415 212.418 297.197 216.045 297.197C219.076 297.197 221.783 297.847 224.165 299.146C226.601 300.391 228.496 302.042 229.85 304.099C231.203 306.157 231.88 308.322 231.88 310.596V336.581L236.752 337.799V339.017H226.195C221.323 339.017 218.887 336.581 218.887 331.709V310.596C218.887 307.185 218.264 304.587 217.019 302.8C215.828 300.96 214.421 300.039 212.797 300.039C210.739 300.039 208.899 301.122 207.275 303.287C206.571 304.208 205.975 305.29 205.488 306.536V336.581L210.36 337.799V339.017H187.623V337.799ZM242.439 337.799L247.312 336.581V284.61L242.439 283.392V282.174H264.365C272.593 282.174 278.629 283.501 282.473 286.153C286.371 288.752 288.32 292.162 288.32 296.385C288.32 299.308 287.481 301.663 285.803 303.45C284.124 305.236 281.986 306.563 279.387 307.429C276.626 308.403 273.649 308.918 270.455 308.972V309.378C274.407 309.54 277.844 310.136 280.768 311.164C283.745 312.139 286.209 313.655 288.157 315.712C290.16 317.769 291.162 320.394 291.162 323.589C291.162 328.407 289.186 332.196 285.234 334.957C281.282 337.664 274.867 339.017 265.989 339.017H242.439V337.799ZM264.365 308.16C266.151 308.16 267.802 307.672 269.318 306.698C270.888 305.669 272.133 304.262 273.053 302.475C274.028 300.635 274.515 298.605 274.515 296.385C274.515 294.003 274.028 291.892 273.053 290.051C272.133 288.21 270.888 286.776 269.318 285.747C267.802 284.719 266.151 284.204 264.365 284.204H260.71V308.16H264.365ZM265.989 336.987C269.345 336.987 272.079 335.796 274.19 333.414C276.302 331.032 277.357 327.757 277.357 323.589C277.357 319.42 276.302 316.145 274.19 313.763C272.079 311.381 269.345 310.19 265.989 310.19H260.71V336.987H265.989ZM318.746 340.235C311.817 340.235 306.43 338.341 302.586 334.551C298.743 330.707 296.821 325.429 296.821 318.716C296.821 314.331 297.66 310.515 299.338 307.266C301.016 304.018 303.344 301.528 306.322 299.796C309.353 298.063 312.818 297.197 316.716 297.197C320.614 297.197 324.024 297.928 326.948 299.39C329.925 300.851 332.199 302.827 333.769 305.318C335.393 307.754 336.205 310.46 336.205 313.438C336.205 314.791 336.07 315.955 335.799 316.93L335.393 318.31C333.065 318.797 330.548 319.203 327.841 319.528C322.157 320.34 316.418 320.746 310.626 320.746C310.626 327.026 311.492 331.519 313.224 334.226C314.957 336.879 317.339 338.205 320.37 338.205C322.482 338.205 324.43 337.718 326.217 336.744C328.058 335.715 329.492 334.389 330.521 332.765C331.603 331.086 332.145 329.381 332.145 327.649H334.175C334.175 329.814 333.525 331.871 332.226 333.82C330.927 335.769 329.113 337.339 326.785 338.53C324.457 339.667 321.778 340.235 318.746 340.235ZM310.626 318.716C314.09 318.716 316.905 318.581 319.071 318.31C319.991 318.256 320.966 318.121 321.994 317.904C322.048 317.634 322.184 317.038 322.4 316.118C322.671 314.764 322.806 313.33 322.806 311.814C322.806 307.321 322.211 304.045 321.02 301.988C319.829 299.877 318.394 298.821 316.716 298.821C312.656 298.821 310.626 305.453 310.626 318.716ZM364.186 340.235C357.256 340.235 351.87 338.341 348.026 334.551C344.182 330.707 342.26 325.429 342.26 318.716C342.26 314.331 343.1 310.515 344.778 307.266C346.456 304.018 348.784 301.528 351.761 299.796C354.793 298.063 358.258 297.197 362.156 297.197C366.053 297.197 369.464 297.928 372.387 299.39C375.365 300.851 377.639 302.827 379.208 305.318C380.833 307.754 381.645 310.46 381.645 313.438C381.645 314.791 381.509 315.955 381.239 316.93L380.833 318.31C378.505 318.797 375.987 319.203 373.281 319.528C367.596 320.34 361.858 320.746 356.065 320.746C356.065 327.026 356.931 331.519 358.664 334.226C360.396 336.879 362.778 338.205 365.81 338.205C367.921 338.205 369.87 337.718 371.656 336.744C373.497 335.715 374.932 334.389 375.96 332.765C377.043 331.086 377.584 329.381 377.584 327.649H379.614C379.614 329.814 378.965 331.871 377.666 333.82C376.366 335.769 374.553 337.339 372.225 338.53C369.897 339.667 367.217 340.235 364.186 340.235ZM356.065 318.716C359.53 318.716 362.345 318.581 364.51 318.31C365.431 318.256 366.405 318.121 367.434 317.904C367.488 317.634 367.623 317.038 367.84 316.118C368.111 314.764 368.246 313.33 368.246 311.814C368.246 307.321 367.65 304.045 366.459 301.988C365.268 299.877 363.834 298.821 362.156 298.821C358.095 298.821 356.065 305.453 356.065 318.716Z" fill="#2D2905"/>
<circle cx="192.534" cy="132.509" r="126.619" fill="#F0D235" stroke="#2D2905" stroke-width="11.7786"/>
<rect x="262.311" y="94.6008" width="137.863" height="49.156" rx="24.578" transform="rotate(120 262.311 94.6008)" fill="#F9F9F9" stroke="#2D2905" stroke-width="10.1702"/>
<rect x="158.662" y="62.8128" width="161.593" height="88.1417" rx="44.0709" transform="rotate(30 158.662 62.8128)" fill="#F2D653" stroke="#2D2905" stroke-width="10.1702"/>
<path d="M206.486 198.073L213.826 202.311C222.297 207.202 231.62 209.285 240.715 208.848L282.088 137.188C277.918 129.093 271.453 122.061 262.982 117.17L255.642 112.933L206.486 198.073Z" fill="#2D2905"/>
<path d="M161.469 172.083L191.806 189.598L240.962 104.457L210.625 86.9421L161.469 172.083Z" fill="#2D2905"/>
<path d="M107.054 111.913C104.509 115.749 99.7127 117.718 95.0208 116.461C89.1432 114.886 85.6552 108.845 87.2301 102.967C88.805 97.0894 94.8464 93.6014 100.724 95.1763C104.231 96.1159 106.887 98.6454 108.125 101.781C118.173 102.29 127.424 105.082 134.887 110.031L128.087 116.831C127.615 116.866 127.142 116.904 126.668 116.945C122.349 114.597 117.261 112.999 111.543 112.282C110.078 112.099 108.58 111.975 107.054 111.913Z" fill="#2D2905"/>
<path d="M131.142 70.1934C133.191 66.0714 132.498 60.9331 129.063 57.4984C124.76 53.1957 117.784 53.1957 113.482 57.4984C109.179 61.801 109.179 68.7771 113.482 73.0798C116.049 75.6468 119.567 76.6823 122.902 76.1863C128.367 84.6342 135.41 91.2499 143.428 95.2385L145.917 85.9498C145.711 85.5237 145.508 85.0949 145.306 84.6636C141.113 82.0971 137.185 78.4896 133.705 73.8963C132.814 72.7193 131.958 71.4837 131.142 70.1934Z" fill="#2D2905"/>
</svg>
